<?xml version="1.0" standalone="no"?>
<!DOCTYPE svg PUBLIC "-//W3C//DTD SVG 20010904//EN"
 "http://www.w3.org/TR/2001/REC-SVG-20010904/DTD/svg10.dtd">
<svg version="1.0" xmlns="http://www.w3.org/2000/svg"
 width="500.000000pt" height="500.000000pt" viewBox="0 0 500.000000 500.000000"
 preserveAspectRatio="xMidYMid meet">

<g transform="translate(0.000000,500.000000) scale(0.100000,-0.100000)"
fill="#000000" stroke="none">
<path d="M955 3406 c-16 -7 -52 -35 -78 -62 -156 -158 -220 -540 -141 -843 14
-53 26 -102 27 -110 2 -13 -90 -57 -99 -48 -2 1 3 25 11 52 50 164 -34 300
-185 299 -59 -1 -108 -20 -151 -61 l-26 -24 -7 25 c-9 36 -47 59 -78 47 -13
-5 -29 -15 -35 -22 -6 -8 -18 -77 -27 -154 -8 -77 -23 -191 -31 -254 -8 -62
-16 -149 -18 -193 -2 -73 0 -81 22 -99 31 -25 57 -24 85 4 19 19 24 38 30 117
20 273 73 408 180 459 40 20 48 21 73 9 40 -19 56 -58 44 -105 -15 -56 -57
-112 -89 -119 -81 -18 -105 -27 -123 -45 -20 -20 -25 -69 -9 -99 21 -39 97
-44 160 -10 14 7 64 19 112 26 49 8 121 25 161 39 l74 25 39 -37 c21 -20 63
-47 93 -61 46 -21 64 -24 135 -20 52 3 97 12 127 25 l46 20 39 -23 c64 -39
136 -49 213 -30 36 9 87 29 113 45 l46 29 24 -25 c68 -74 167 -69 257 13 l42
37 29 -35 c56 -68 146 -83 230 -38 34 18 36 18 73 -2 84 -42 178 -33 243 25
48 41 64 77 64 137 0 64 -15 96 -85 183 -56 69 -59 79 -56 154 4 66 -45 102
-100 73 -10 -6 -33 -39 -50 -73 -34 -66 -89 -148 -140 -209 -24 -28 -30 -43
-25 -62 8 -32 32 -56 57 -56 23 0 112 80 137 122 9 15 20 28 24 28 4 0 30 -27
58 -61 56 -67 64 -105 30 -139 -27 -27 -70 -25 -130 5 -60 30 -93 31 -131 4
-43 -31 -77 -29 -103 4 -19 26 -21 41 -21 161 0 146 -4 158 -62 183 -122 51
-279 -38 -358 -202 -35 -73 -88 -132 -141 -159 -39 -19 -107 -31 -130 -22 -14
5 -7 14 33 41 131 88 189 214 144 309 -23 47 -82 86 -130 86 -132 0 -252 -145
-257 -310 -3 -90 -14 -100 -114 -100 -63 0 -122 22 -142 53 -4 6 11 30 33 54
144 156 236 395 246 638 8 180 -25 296 -102 363 -31 28 -43 32 -93 32 -31 -1
-70 -7 -87 -14z m104 -162 c64 -82 46 -338 -40 -552 -34 -86 -117 -218 -130
-205 -4 4 -15 46 -24 92 -21 103 -16 354 8 441 30 108 59 172 96 211 44 46 62
48 90 13z m419 -717 c4 -36 -29 -89 -80 -127 -52 -37 -60 -38 -52 -2 13 63 37
113 66 137 38 32 62 29 66 -8z m502 -12 c26 -31 -19 -161 -73 -213 -41 -40
-78 -49 -101 -26 -43 42 33 195 119 242 27 15 40 15 55 -3z"/>
<path d="M4091 3313 c-23 -24 -31 -48 -54 -168 -14 -77 -29 -159 -33 -182 l-7
-43 -159 0 c-94 0 -168 -4 -179 -11 -45 -23 -39 -102 8 -120 13 -5 87 -9 164
-9 76 0 139 -2 139 -5 0 -3 -11 -64 -25 -135 -42 -211 -107 -370 -152 -370
-13 0 -15 10 -10 63 2 34 10 94 17 132 17 92 3 147 -43 175 -18 11 -43 20 -58
20 -42 0 -115 -54 -156 -116 l-38 -57 -7 56 c-9 71 -22 95 -54 103 -45 11 -73
-11 -106 -84 -77 -172 -107 -229 -132 -259 -60 -72 -81 -29 -65 135 12 135 7
161 -43 193 -27 16 -46 19 -98 17 -81 -5 -131 -28 -196 -93 -136 -136 -152
-350 -30 -406 23 -10 52 -19 66 -19 35 0 100 32 141 68 l35 31 28 -36 c76 -95
198 -74 280 48 l35 52 -5 -54 c-8 -87 23 -122 92 -105 19 5 39 38 100 161 95
192 140 241 115 125 -17 -78 -14 -179 7 -220 36 -72 131 -93 202 -46 21 14 55
53 76 87 l38 61 19 -43 c35 -84 101 -129 188 -129 68 0 126 28 180 88 23 26
55 62 71 80 35 38 70 42 92 10 24 -33 20 -67 -8 -79 -13 -6 -30 -22 -37 -35
-25 -48 28 -104 87 -90 40 10 91 66 104 115 32 120 -63 251 -183 251 -66 0
-109 -23 -160 -83 -89 -106 -106 -118 -151 -115 -37 3 -43 7 -63 48 -20 38
-23 60 -23 155 0 94 21 291 32 299 1 2 58 8 124 14 198 19 294 59 294 124 0
31 -31 68 -58 68 -9 0 -47 -9 -84 -19 -67 -19 -247 -46 -255 -37 -2 2 7 72 21
155 33 190 33 225 4 245 -32 23 -56 20 -87 -11z m-1086 -838 c-1 -81 -61 -178
-126 -205 -105 -44 -56 166 56 241 17 10 39 18 50 17 17 -3 20 -10 20 -53z"/>
</g>
</svg>
